<mxfile host="app.diagrams.net" modified="2021-05-17T03:17:03.283Z" agent="5.0 (Macintosh; Intel Mac OS X 10_15_7) AppleWebKit/537.36 (KHTML, like Gecko) Chrome/86.0.4240.193 Safari/537.36" etag="w0EufwekeK1JBhXQsbyQ" version="14.6.13" type="github">
  <diagram id="xaw3ujX6sU8kgFlzPIFY" name="Page-1">
    <mxGraphModel dx="946" dy="536" grid="1" gridSize="10" guides="1" tooltips="1" connect="1" arrows="1" fold="1" page="1" pageScale="1" pageWidth="827" pageHeight="1169" math="0" shadow="0">
      <root>
        <mxCell id="0" />
        <mxCell id="1" parent="0" />
        <mxCell id="CsIv1HKKBsfB5xrWtF99-1" value="" style="rounded=1;whiteSpace=wrap;html=1;" vertex="1" parent="1">
          <mxGeometry x="150" y="130" width="380" height="570" as="geometry" />
        </mxCell>
        <mxCell id="CsIv1HKKBsfB5xrWtF99-2" value="&lt;pre&gt;MQClientInstance&lt;/pre&gt;" style="text;html=1;strokeColor=none;fillColor=none;align=center;verticalAlign=middle;whiteSpace=wrap;rounded=0;" vertex="1" parent="1">
          <mxGeometry x="265" y="160" width="140" height="20" as="geometry" />
        </mxCell>
        <mxCell id="CsIv1HKKBsfB5xrWtF99-3" value="&lt;pre&gt;PullMessageService&lt;/pre&gt;&lt;pre&gt;拉取消息组件&lt;/pre&gt;" style="rounded=1;whiteSpace=wrap;html=1;" vertex="1" parent="1">
          <mxGeometry x="247.5" y="525" width="175" height="60" as="geometry" />
        </mxCell>
        <mxCell id="CsIv1HKKBsfB5xrWtF99-4" value="&lt;pre&gt;&lt;pre&gt;RebalanceService&lt;/pre&gt;&lt;pre&gt;重平衡组件&lt;/pre&gt;&lt;/pre&gt;" style="rounded=1;whiteSpace=wrap;html=1;" vertex="1" parent="1">
          <mxGeometry x="247.5" y="610" width="175" height="60" as="geometry" />
        </mxCell>
        <mxCell id="CsIv1HKKBsfB5xrWtF99-5" value="" style="rounded=1;whiteSpace=wrap;html=1;" vertex="1" parent="1">
          <mxGeometry x="234" y="190" width="206" height="290" as="geometry" />
        </mxCell>
        <mxCell id="CsIv1HKKBsfB5xrWtF99-6" value="&lt;pre&gt;MQClientAPIImpl&lt;/pre&gt;&lt;pre&gt;网络请求相关&lt;/pre&gt;" style="text;html=1;strokeColor=none;fillColor=none;align=center;verticalAlign=middle;whiteSpace=wrap;rounded=0;" vertex="1" parent="1">
          <mxGeometry x="315" y="200" width="40" height="20" as="geometry" />
        </mxCell>
        <mxCell id="CsIv1HKKBsfB5xrWtF99-7" value="&lt;pre&gt;NettyClientConfig&lt;/pre&gt;&lt;pre&gt;netty客户端配置类&lt;/pre&gt;" style="rounded=1;whiteSpace=wrap;html=1;" vertex="1" parent="1">
          <mxGeometry x="259" y="240" width="155" height="60" as="geometry" />
        </mxCell>
        <mxCell id="CsIv1HKKBsfB5xrWtF99-9" value="&lt;pre&gt;&lt;pre&gt;NettyRemotingClient&lt;/pre&gt;&lt;pre&gt;发送网络请求&lt;/pre&gt;&lt;/pre&gt;" style="rounded=1;whiteSpace=wrap;html=1;" vertex="1" parent="1">
          <mxGeometry x="259" y="310" width="155" height="60" as="geometry" />
        </mxCell>
        <mxCell id="CsIv1HKKBsfB5xrWtF99-10" value="&lt;pre&gt;&lt;pre&gt;&lt;pre&gt;ClientRemotingProcessor&lt;/pre&gt;&lt;pre&gt;请求处理器&lt;/pre&gt;&lt;pre&gt;针对不同的请求返回不同的数据&lt;/pre&gt;&lt;/pre&gt;&lt;/pre&gt;" style="rounded=1;whiteSpace=wrap;html=1;" vertex="1" parent="1">
          <mxGeometry x="249.5" y="382.5" width="180.5" height="77.5" as="geometry" />
        </mxCell>
      </root>
    </mxGraphModel>
  </diagram>
</mxfile>
